<svg width="25" height="25" viewBox="0 0 25 25" fill="none" xmlns="http://www.w3.org/2000/svg">
<g clip-path="url(#clip0_1298_114)">
<path d="M12.7083 25.3125C13.8542 25.3125 14.7917 24.3173 14.7917 23.101H10.625C10.625 24.3173 11.5625 25.3125 12.7083 25.3125ZM18.9583 18.6779V13.149C18.9583 9.75433 17.2604 6.9125 14.2708 6.16058V5.40865C14.2708 4.49087 13.5729 3.75 12.7083 3.75C11.8437 3.75 11.1458 4.49087 11.1458 5.40865V6.16058C8.16667 6.9125 6.45833 9.74327 6.45833 13.149V18.6779L4.375 20.8894V21.9952H21.0417V20.8894L18.9583 18.6779ZM16.875 19.7837H8.54167V13.149C8.54167 10.4067 10.1146 8.17308 12.7083 8.17308C15.3021 8.17308 16.875 10.4067 16.875 13.149V19.7837Z" fill="black"/>
</g>
<defs>
<clipPath id="clip0_1298_114">
<rect width="25" height="25" fill="white"/>
</clipPath>
</defs>
</svg>
